<svg width="50" height="50" viewBox="0 0 50 50" fill="none" xmlns="http://www.w3.org/2000/svg">
<g clip-path="url(#clip0_706_2094)">
<path d="M11.8501 25.3566C14.0701 32.7533 17.2901 37.3366 19.7767 26.7566C19.5367 26.7233 24.8301 12.72 25.0534 12.18C27.0934 9.46332 30.3801 7.78998 33.7934 7.82331C40.5334 7.30331 47.5267 16.6533 45.6934 21.1766C44.4401 24.45 39.7301 25.1466 37.5634 22.4C36.8101 21.4633 36.5101 20.2766 35.8567 19.24C34.5967 16.8933 32.9301 16.66 31.8567 19.29C30.9601 21.25 30.4767 23.2866 29.9967 25.3533L27.9567 31.98L25.1034 38.2733C23.0601 40.94 19.8134 42.5267 16.4634 42.5533C3.07673 41.8933 1.91339 24.05 0.84006 18.68C0.69006 17.2 0.833393 16.5033 1.45339 15.34C3.09673 12.4433 7.64006 12.2833 9.50673 15.0333C10.1701 15.95 10.2967 17.1233 10.4234 18.22C10.7034 20.6166 11.1867 23.01 11.8501 25.3566Z" fill="url(#paint0_linear_706_2094)"/>
<path d="M11.8501 25.3566C14.0701 32.7533 17.2901 37.3366 19.7767 26.7566C19.5367 26.7233 24.8301 12.72 25.0534 12.18C27.0934 9.46332 30.3801 7.78998 33.7934 7.82331C40.5334 7.30331 47.5267 16.6533 45.6934 21.1766C44.4401 24.45 39.7301 25.1466 37.5634 22.4C36.8101 21.4633 36.5101 20.2766 35.8567 19.24C34.5967 16.8933 32.9301 16.66 31.8567 19.29C30.9601 21.25 30.4767 23.2866 29.9967 25.3533L27.9567 31.98L25.1034 38.2733C23.0601 40.94 19.8134 42.5267 16.4634 42.5533C3.07673 41.8933 1.91339 24.05 0.84006 18.68C0.69006 17.2 0.833393 16.5033 1.45339 15.34C3.09673 12.4433 7.64006 12.2833 9.50673 15.0333C10.1701 15.95 10.2967 17.1233 10.4234 18.22C10.7034 20.6166 11.1867 23.01 11.8501 25.3566Z" fill="url(#paint1_radial_706_2094)"/>
<path d="M11.8501 25.3566C14.0701 32.7533 17.2901 37.3366 19.7767 26.7566C19.5367 26.7233 24.8301 12.72 25.0534 12.18C27.0934 9.46332 30.3801 7.78998 33.7934 7.82331C40.5334 7.30331 47.5267 16.6533 45.6934 21.1766C44.4401 24.45 39.7301 25.1466 37.5634 22.4C36.8101 21.4633 36.5101 20.2766 35.8567 19.24C34.5967 16.8933 32.9301 16.66 31.8567 19.29C30.9601 21.25 30.4767 23.2866 29.9967 25.3533L27.9567 31.98L25.1034 38.2733C23.0601 40.94 19.8134 42.5267 16.4634 42.5533C3.07673 41.8933 1.91339 24.05 0.84006 18.68C0.69006 17.2 0.833393 16.5033 1.45339 15.34C3.09673 12.4433 7.64006 12.2833 9.50673 15.0333C10.1701 15.95 10.2967 17.1233 10.4234 18.22C10.7034 20.6166 11.1867 23.01 11.8501 25.3566Z" fill="url(#paint2_radial_706_2094)"/>
<path d="M11.8501 25.3566C14.0701 32.7533 17.2901 37.3366 19.7767 26.7566C19.5367 26.7233 24.8301 12.72 25.0534 12.18C27.0934 9.46332 30.3801 7.78998 33.7934 7.82331C40.5334 7.30331 47.5267 16.6533 45.6934 21.1766C44.4401 24.45 39.7301 25.1466 37.5634 22.4C36.8101 21.4633 36.5101 20.2766 35.8567 19.24C34.5967 16.8933 32.9301 16.66 31.8567 19.29C30.9601 21.25 30.4767 23.2866 29.9967 25.3533L27.9567 31.98L25.1034 38.2733C23.0601 40.94 19.8134 42.5267 16.4634 42.5533C3.07673 41.8933 1.91339 24.05 0.84006 18.68C0.69006 17.2 0.833393 16.5033 1.45339 15.34C3.09673 12.4433 7.64006 12.2833 9.50673 15.0333C10.1701 15.95 10.2967 17.1233 10.4234 18.22C10.7034 20.6166 11.1867 23.01 11.8501 25.3566Z" fill="url(#paint3_radial_706_2094)"/>
<path d="M11.8501 25.3566C14.0701 32.7533 17.2901 37.3366 19.7767 26.7566C19.5367 26.7233 24.8301 12.72 25.0534 12.18C27.0934 9.46332 30.3801 7.78998 33.7934 7.82331C40.5334 7.30331 47.5267 16.6533 45.6934 21.1766C44.4401 24.45 39.7301 25.1466 37.5634 22.4C36.8101 21.4633 36.5101 20.2766 35.8567 19.24C34.5967 16.8933 32.9301 16.66 31.8567 19.29C30.9601 21.25 30.4767 23.2866 29.9967 25.3533L27.9567 31.98L25.1034 38.2733C23.0601 40.94 19.8134 42.5267 16.4634 42.5533C3.07673 41.8933 1.91339 24.05 0.84006 18.68C0.69006 17.2 0.833393 16.5033 1.45339 15.34C3.09673 12.4433 7.64006 12.2833 9.50673 15.0333C10.1701 15.95 10.2967 17.1233 10.4234 18.22C10.7034 20.6166 11.1867 23.01 11.8501 25.3566Z" fill="url(#paint4_radial_706_2094)"/>
<path d="M11.8501 25.3566C14.0701 32.7533 17.2901 37.3366 19.7767 26.7566C19.5367 26.7233 24.8301 12.72 25.0534 12.18C27.0934 9.46332 30.3801 7.78998 33.7934 7.82331C40.5334 7.30331 47.5267 16.6533 45.6934 21.1766C44.4401 24.45 39.7301 25.1466 37.5634 22.4C36.8101 21.4633 36.5101 20.2766 35.8567 19.24C34.5967 16.8933 32.9301 16.66 31.8567 19.29C30.9601 21.25 30.4767 23.2866 29.9967 25.3533L27.9567 31.98L25.1034 38.2733C23.0601 40.94 19.8134 42.5267 16.4634 42.5533C3.07673 41.8933 1.91339 24.05 0.84006 18.68C0.69006 17.2 0.833393 16.5033 1.45339 15.34C3.09673 12.4433 7.64006 12.2833 9.50673 15.0333C10.1701 15.95 10.2967 17.1233 10.4234 18.22C10.7034 20.6166 11.1867 23.01 11.8501 25.3566Z" fill="url(#paint5_radial_706_2094)"/>
<path d="M11.8501 25.3566C14.0701 32.7533 17.2901 37.3366 19.7767 26.7566C19.5367 26.7233 24.8301 12.72 25.0534 12.18C27.0934 9.46332 30.3801 7.78998 33.7934 7.82331C40.5334 7.30331 47.5267 16.6533 45.6934 21.1766C44.4401 24.45 39.7301 25.1466 37.5634 22.4C36.8101 21.4633 36.5101 20.2766 35.8567 19.24C34.5967 16.8933 32.9301 16.66 31.8567 19.29C30.9601 21.25 30.4767 23.2866 29.9967 25.3533L27.9567 31.98L25.1034 38.2733C23.0601 40.94 19.8134 42.5267 16.4634 42.5533C3.07673 41.8933 1.91339 24.05 0.84006 18.68C0.69006 17.2 0.833393 16.5033 1.45339 15.34C3.09673 12.4433 7.64006 12.2833 9.50673 15.0333C10.1701 15.95 10.2967 17.1233 10.4234 18.22C10.7034 20.6166 11.1867 23.01 11.8501 25.3566Z" fill="url(#paint6_radial_706_2094)"/>
<path d="M11.8501 25.3566C14.0701 32.7533 17.2901 37.3366 19.7767 26.7566C19.5367 26.7233 24.8301 12.72 25.0534 12.18C27.0934 9.46332 30.3801 7.78998 33.7934 7.82331C40.5334 7.30331 47.5267 16.6533 45.6934 21.1766C44.4401 24.45 39.7301 25.1466 37.5634 22.4C36.8101 21.4633 36.5101 20.2766 35.8567 19.24C34.5967 16.8933 32.9301 16.66 31.8567 19.29C30.9601 21.25 30.4767 23.2866 29.9967 25.3533L27.9567 31.98L25.1034 38.2733C23.0601 40.94 19.8134 42.5267 16.4634 42.5533C3.07673 41.8933 1.91339 24.05 0.84006 18.68C0.69006 17.2 0.833393 16.5033 1.45339 15.34C3.09673 12.4433 7.64006 12.2833 9.50673 15.0333C10.1701 15.95 10.2967 17.1233 10.4234 18.22C10.7034 20.6166 11.1867 23.01 11.8501 25.3566Z" fill="url(#paint7_radial_706_2094)"/>
<path d="M11.8501 25.3566C14.0701 32.7533 17.2901 37.3366 19.7767 26.7566C19.5367 26.7233 24.8301 12.72 25.0534 12.18C27.0934 9.46332 30.3801 7.78998 33.7934 7.82331C40.5334 7.30331 47.5267 16.6533 45.6934 21.1766C44.4401 24.45 39.7301 25.1466 37.5634 22.4C36.8101 21.4633 36.5101 20.2766 35.8567 19.24C34.5967 16.8933 32.9301 16.66 31.8567 19.29C30.9601 21.25 30.4767 23.2866 29.9967 25.3533L27.9567 31.98L25.1034 38.2733C23.0601 40.94 19.8134 42.5267 16.4634 42.5533C3.07673 41.8933 1.91339 24.05 0.84006 18.68C0.69006 17.2 0.833393 16.5033 1.45339 15.34C3.09673 12.4433 7.64006 12.2833 9.50673 15.0333C10.1701 15.95 10.2967 17.1233 10.4234 18.22C10.7034 20.6166 11.1867 23.01 11.8501 25.3566Z" fill="url(#paint8_radial_706_2094)"/>
<path d="M11.8501 25.3566C14.0701 32.7533 17.2901 37.3366 19.7767 26.7566C19.5367 26.7233 24.8301 12.72 25.0534 12.18C27.0934 9.46332 30.3801 7.78998 33.7934 7.82331C40.5334 7.30331 47.5267 16.6533 45.6934 21.1766C44.4401 24.45 39.7301 25.1466 37.5634 22.4C36.8101 21.4633 36.5101 20.2766 35.8567 19.24C34.5967 16.8933 32.9301 16.66 31.8567 19.29C30.9601 21.25 30.4767 23.2866 29.9967 25.3533L27.9567 31.98L25.1034 38.2733C23.0601 40.94 19.8134 42.5267 16.4634 42.5533C3.07673 41.8933 1.91339 24.05 0.84006 18.68C0.69006 17.2 0.833393 16.5033 1.45339 15.34C3.09673 12.4433 7.64006 12.2833 9.50673 15.0333C10.1701 15.95 10.2967 17.1233 10.4234 18.22C10.7034 20.6166 11.1867 23.01 11.8501 25.3566Z" fill="url(#paint9_radial_706_2094)"/>
<path d="M11.8501 25.3566C14.0701 32.7533 17.2901 37.3366 19.7767 26.7566C19.5367 26.7233 24.8301 12.72 25.0534 12.18C27.0934 9.46332 30.3801 7.78998 33.7934 7.82331C40.5334 7.30331 47.5267 16.6533 45.6934 21.1766C44.4401 24.45 39.7301 25.1466 37.5634 22.4C36.8101 21.4633 36.5101 20.2766 35.8567 19.24C34.5967 16.8933 32.9301 16.66 31.8567 19.29C30.9601 21.25 30.4767 23.2866 29.9967 25.3533L27.9567 31.98L25.1034 38.2733C23.0601 40.94 19.8134 42.5267 16.4634 42.5533C3.07673 41.8933 1.91339 24.05 0.84006 18.68C0.69006 17.2 0.833393 16.5033 1.45339 15.34C3.09673 12.4433 7.64006 12.2833 9.50673 15.0333C10.1701 15.95 10.2967 17.1233 10.4234 18.22C10.7034 20.6166 11.1867 23.01 11.8501 25.3566Z" fill="url(#paint10_radial_706_2094)"/>
<path d="M11.8501 25.3566C14.0701 32.7533 17.2901 37.3366 19.7767 26.7566C19.5367 26.7233 24.8301 12.72 25.0534 12.18C27.0934 9.46332 30.3801 7.78998 33.7934 7.82331C40.5334 7.30331 47.5267 16.6533 45.6934 21.1766C44.4401 24.45 39.7301 25.1466 37.5634 22.4C36.8101 21.4633 36.5101 20.2766 35.8567 19.24C34.5967 16.8933 32.9301 16.66 31.8567 19.29C30.9601 21.25 30.4767 23.2866 29.9967 25.3533L27.9567 31.98L25.1034 38.2733C23.0601 40.94 19.8134 42.5267 16.4634 42.5533C3.07673 41.8933 1.91339 24.05 0.84006 18.68C0.69006 17.2 0.833393 16.5033 1.45339 15.34C3.09673 12.4433 7.64006 12.2833 9.50673 15.0333C10.1701 15.95 10.2967 17.1233 10.4234 18.22C10.7034 20.6166 11.1867 23.01 11.8501 25.3566Z" fill="url(#paint11_radial_706_2094)"/>
<path d="M11.8501 25.3566C14.0701 32.7533 17.2901 37.3366 19.7767 26.7566C19.5367 26.7233 24.8301 12.72 25.0534 12.18C27.0934 9.46332 30.3801 7.78998 33.7934 7.82331C40.5334 7.30331 47.5267 16.6533 45.6934 21.1766C44.4401 24.45 39.7301 25.1466 37.5634 22.4C36.8101 21.4633 36.5101 20.2766 35.8567 19.24C34.5967 16.8933 32.9301 16.66 31.8567 19.29C30.9601 21.25 30.4767 23.2866 29.9967 25.3533L27.9567 31.98L25.1034 38.2733C23.0601 40.94 19.8134 42.5267 16.4634 42.5533C3.07673 41.8933 1.91339 24.05 0.84006 18.68C0.69006 17.2 0.833393 16.5033 1.45339 15.34C3.09673 12.4433 7.64006 12.2833 9.50673 15.0333C10.1701 15.95 10.2967 17.1233 10.4234 18.22C10.7034 20.6166 11.1867 23.01 11.8501 25.3566Z" fill="url(#paint12_radial_706_2094)"/>
<path d="M11.8501 25.3566C14.0701 32.7533 17.2901 37.3366 19.7767 26.7566C19.5367 26.7233 24.8301 12.72 25.0534 12.18C27.0934 9.46332 30.3801 7.78998 33.7934 7.82331C40.5334 7.30331 47.5267 16.6533 45.6934 21.1766C44.4401 24.45 39.7301 25.1466 37.5634 22.4C36.8101 21.4633 36.5101 20.2766 35.8567 19.24C34.5967 16.8933 32.9301 16.66 31.8567 19.29C30.9601 21.25 30.4767 23.2866 29.9967 25.3533L27.9567 31.98L25.1034 38.2733C23.0601 40.94 19.8134 42.5267 16.4634 42.5533C3.07673 41.8933 1.91339 24.05 0.84006 18.68C0.69006 17.2 0.833393 16.5033 1.45339 15.34C3.09673 12.4433 7.64006 12.2833 9.50673 15.0333C10.1701 15.95 10.2967 17.1233 10.4234 18.22C10.7034 20.6166 11.1867 23.01 11.8501 25.3566Z" fill="url(#paint13_radial_706_2094)"/>
<path d="M11.8501 25.3566C14.0701 32.7533 17.2901 37.3366 19.7767 26.7566C19.5367 26.7233 24.8301 12.72 25.0534 12.18C27.0934 9.46332 30.3801 7.78998 33.7934 7.82331C40.5334 7.30331 47.5267 16.6533 45.6934 21.1766C44.4401 24.45 39.7301 25.1466 37.5634 22.4C36.8101 21.4633 36.5101 20.2766 35.8567 19.24C34.5967 16.8933 32.9301 16.66 31.8567 19.29C30.9601 21.25 30.4767 23.2866 29.9967 25.3533L27.9567 31.98L25.1034 38.2733C23.0601 40.94 19.8134 42.5267 16.4634 42.5533C3.07673 41.8933 1.91339 24.05 0.84006 18.68C0.69006 17.2 0.833393 16.5033 1.45339 15.34C3.09673 12.4433 7.64006 12.2833 9.50673 15.0333C10.1701 15.95 10.2967 17.1233 10.4234 18.22C10.7034 20.6166 11.1867 23.01 11.8501 25.3566Z" fill="url(#paint14_radial_706_2094)"/>
<path d="M11.8501 25.3566C14.0701 32.7533 17.2901 37.3366 19.7767 26.7566C19.5367 26.7233 24.8301 12.72 25.0534 12.18C27.0934 9.46332 30.3801 7.78998 33.7934 7.82331C40.5334 7.30331 47.5267 16.6533 45.6934 21.1766C44.4401 24.45 39.7301 25.1466 37.5634 22.4C36.8101 21.4633 36.5101 20.2766 35.8567 19.24C34.5967 16.8933 32.9301 16.66 31.8567 19.29C30.9601 21.25 30.4767 23.2866 29.9967 25.3533L27.9567 31.98L25.1034 38.2733C23.0601 40.94 19.8134 42.5267 16.4634 42.5533C3.07673 41.8933 1.91339 24.05 0.84006 18.68C0.69006 17.2 0.833393 16.5033 1.45339 15.34C3.09673 12.4433 7.64006 12.2833 9.50673 15.0333C10.1701 15.95 10.2967 17.1233 10.4234 18.22C10.7034 20.6166 11.1867 23.01 11.8501 25.3566Z" fill="url(#paint15_radial_706_2094)"/>
<path d="M11.8501 25.3566C14.0701 32.7533 17.2901 37.3366 19.7767 26.7566C19.5367 26.7233 24.8301 12.72 25.0534 12.18C27.0934 9.46332 30.3801 7.78998 33.7934 7.82331C40.5334 7.30331 47.5267 16.6533 45.6934 21.1766C44.4401 24.45 39.7301 25.1466 37.5634 22.4C36.8101 21.4633 36.5101 20.2766 35.8567 19.24C34.5967 16.8933 32.9301 16.66 31.8567 19.29C30.9601 21.25 30.4767 23.2866 29.9967 25.3533L27.9567 31.98L25.1034 38.2733C23.0601 40.94 19.8134 42.5267 16.4634 42.5533C3.07673 41.8933 1.91339 24.05 0.84006 18.68C0.69006 17.2 0.833393 16.5033 1.45339 15.34C3.09673 12.4433 7.64006 12.2833 9.50673 15.0333C10.1701 15.95 10.2967 17.1233 10.4234 18.22C10.7034 20.6166 11.1867 23.01 11.8501 25.3566Z" fill="url(#paint16_linear_706_2094)"/>
<path d="M11.8501 25.3566C14.0701 32.7533 17.2901 37.3366 19.7767 26.7566C19.5367 26.7233 24.8301 12.72 25.0534 12.18C27.0934 9.46332 30.3801 7.78998 33.7934 7.82331C40.5334 7.30331 47.5267 16.6533 45.6934 21.1766C44.4401 24.45 39.7301 25.1466 37.5634 22.4C36.8101 21.4633 36.5101 20.2766 35.8567 19.24C34.5967 16.8933 32.9301 16.66 31.8567 19.29C30.9601 21.25 30.4767 23.2866 29.9967 25.3533L27.9567 31.98L25.1034 38.2733C23.0601 40.94 19.8134 42.5267 16.4634 42.5533C3.07673 41.8933 1.91339 24.05 0.84006 18.68C0.69006 17.2 0.833393 16.5033 1.45339 15.34C3.09673 12.4433 7.64006 12.2833 9.50673 15.0333C10.1701 15.95 10.2967 17.1233 10.4234 18.22C10.7034 20.6166 11.1867 23.01 11.8501 25.3566Z" fill="url(#paint17_linear_706_2094)"/>
<path d="M11.8501 25.3566C14.0701 32.7533 17.2901 37.3366 19.7767 26.7566C19.5367 26.7233 24.8301 12.72 25.0534 12.18C27.0934 9.46332 30.3801 7.78998 33.7934 7.82331C40.5334 7.30331 47.5267 16.6533 45.6934 21.1766C44.4401 24.45 39.7301 25.1466 37.5634 22.4C36.8101 21.4633 36.5101 20.2766 35.8567 19.24C34.5967 16.8933 32.9301 16.66 31.8567 19.29C30.9601 21.25 30.4767 23.2866 29.9967 25.3533L27.9567 31.98L25.1034 38.2733C23.0601 40.94 19.8134 42.5267 16.4634 42.5533C3.07673 41.8933 1.91339 24.05 0.84006 18.68C0.69006 17.2 0.833393 16.5033 1.45339 15.34C3.09673 12.4433 7.64006 12.2833 9.50673 15.0333C10.1701 15.95 10.2967 17.1233 10.4234 18.22C10.7034 20.6166 11.1867 23.01 11.8501 25.3566Z" fill="url(#paint18_linear_706_2094)"/>
<path d="M11.8501 25.3566C14.0701 32.7533 17.2901 37.3366 19.7767 26.7566C19.5367 26.7233 24.8301 12.72 25.0534 12.18C27.0934 9.46332 30.3801 7.78998 33.7934 7.82331C40.5334 7.30331 47.5267 16.6533 45.6934 21.1766C44.4401 24.45 39.7301 25.1466 37.5634 22.4C36.8101 21.4633 36.5101 20.2766 35.8567 19.24C34.5967 16.8933 32.9301 16.66 31.8567 19.29C30.9601 21.25 30.4767 23.2866 29.9967 25.3533L27.9567 31.98L25.1034 38.2733C23.0601 40.94 19.8134 42.5267 16.4634 42.5533C3.07673 41.8933 1.91339 24.05 0.84006 18.68C0.69006 17.2 0.833393 16.5033 1.45339 15.34C3.09673 12.4433 7.64006 12.2833 9.50673 15.0333C10.1701 15.95 10.2967 17.1233 10.4234 18.22C10.7034 20.6166 11.1867 23.01 11.8501 25.3566Z" fill="url(#paint19_linear_706_2094)"/>
<path d="M21.9133 20.4901L25.0467 12.1568C28.5133 7.35342 35.93 6.31675 40.5167 10.1168C43.7267 12.5368 45.64 17.3301 45.64 17.3301C46.4533 19.0801 46.04 21.3668 44.6467 22.7068C42.74 24.6901 39.2833 24.5134 37.5633 22.3768C36.4233 21.1134 35.4233 16.3834 33.0533 17.5601C31.2833 19.3134 30.8967 22.0501 30.2233 24.3401C30.2167 24.7834 28.1333 31.3334 27.9567 31.9601L21.9167 20.4934L21.9133 20.4901Z" fill="url(#paint20_linear_706_2094)"/>
<path d="M44.57 13.0733C44.1633 13.0733 43.7533 13.1233 43.3733 13.2266C44.5233 15.1133 45.87 17.0466 45.9266 19.3166C46.0466 22.9033 41.8733 25.3633 38.8366 23.4466C37.7566 28.0033 34.2833 37.8933 31.4466 30.2266C30.0666 26.1466 29.63 23.3133 28.5166 19.5233C25.4033 6.20662 12.7766 4.44996 6.82996 13.2266C9.14996 13.7666 10.2966 16.1 10.4233 18.2466C10.5633 20.6533 11.1633 22.9866 11.8266 25.3066C15.6566 13.5333 17.9266 16.54 19.7266 23.88C21.46 31.2933 23.44 38.9833 28.39 41.2333C34.9066 44.7366 42.0566 41.1066 44.8 34.8866C46.9033 30.74 48.15 26.2633 48.8766 21.6866C49.09 19.86 49.6766 17.9266 49.0566 16.13C48.36 14.3266 46.49 13.06 44.57 13.0733Z" fill="url(#paint21_linear_706_2094)"/>
<path d="M44.57 13.0733C44.1633 13.0733 43.7533 13.1233 43.3733 13.2266C44.5233 15.1133 45.9933 17.0466 46.05 19.3166C46.17 22.9033 41.8733 25.3633 38.8366 23.4466C37.7566 28.0033 34.2833 37.8933 31.4466 30.2266C30.0666 26.1466 29.63 23.3133 28.5166 19.5233C25.4033 6.20662 12.7766 4.44996 6.82996 13.2266C9.14996 13.7666 10.3833 15.99 10.4233 18.2466C10.7033 20.6433 11.1633 22.9866 11.8266 25.3066C15.6566 13.5333 17.9266 16.54 19.7266 23.88C21.46 31.2933 23.44 38.9833 28.39 41.2333C34.9066 44.7366 42.0566 41.1066 44.8 34.8866C46.9033 30.74 48.15 26.2633 48.8766 21.6866C49.09 19.86 49.6766 17.9266 49.0566 16.13C48.36 14.3266 46.49 13.06 44.57 13.0733Z" fill="url(#paint22_radial_706_2094)"/>
<path d="M44.57 13.0733C44.1633 13.0733 43.7533 13.1233 43.3733 13.2266C44.5233 15.1133 45.9933 17.0466 46.05 19.3166C46.17 22.9033 41.8733 25.3633 38.8366 23.4466C37.7566 28.0033 34.2833 37.8933 31.4466 30.2266C30.0666 26.1466 29.63 23.3133 28.5166 19.5233C25.4033 6.20662 12.7766 4.44996 6.82996 13.2266C9.14996 13.7666 10.3833 15.99 10.4233 18.2466C10.7033 20.6433 11.1633 22.9866 11.8266 25.3066C15.6566 13.5333 17.9266 16.54 19.7266 23.88C21.46 31.2933 23.44 38.9833 28.39 41.2333C34.9066 44.7366 42.0566 41.1066 44.8 34.8866C46.9033 30.74 48.15 26.2633 48.8766 21.6866C49.09 19.86 49.6766 17.9266 49.0566 16.13C48.36 14.3266 46.49 13.06 44.57 13.0733Z" fill="url(#paint23_radial_706_2094)"/>
<path d="M44.57 13.0733C44.1633 13.0733 43.7533 13.1233 43.3733 13.2266C44.5233 15.1133 45.9933 17.0466 46.05 19.3166C46.17 22.9033 41.8733 25.3633 38.8366 23.4466C37.7566 28.0033 34.2833 37.8933 31.4466 30.2266C30.0666 26.1466 29.63 23.3133 28.5166 19.5233C25.4033 6.20662 12.7766 4.44996 6.82996 13.2266C9.14996 13.7666 10.3833 15.99 10.4233 18.2466C10.7033 20.6433 11.1633 22.9866 11.8266 25.3066C15.6566 13.5333 17.9266 16.54 19.7266 23.88C21.46 31.2933 23.44 38.9833 28.39 41.2333C34.9066 44.7366 42.0566 41.1066 44.8 34.8866C46.9033 30.74 48.15 26.2633 48.8766 21.6866C49.09 19.86 49.6766 17.9266 49.0566 16.13C48.36 14.3266 46.49 13.06 44.57 13.0733Z" fill="url(#paint24_radial_706_2094)"/>
<path d="M44.57 13.0733C44.1633 13.0733 43.7533 13.1233 43.3733 13.2266C44.5233 15.1133 45.9933 17.0466 46.05 19.3166C46.17 22.9033 41.8733 25.3633 38.8366 23.4466C37.7566 28.0033 34.2833 37.8933 31.4466 30.2266C30.0666 26.1466 29.63 23.3133 28.5166 19.5233C25.4033 6.20662 12.7766 4.44996 6.82996 13.2266C9.14996 13.7666 10.3833 15.99 10.4233 18.2466C10.7033 20.6433 11.1633 22.9866 11.8266 25.3066C15.6566 13.5333 17.9266 16.54 19.7266 23.88C21.46 31.2933 23.44 38.9833 28.39 41.2333C34.9066 44.7366 42.0566 41.1066 44.8 34.8866C46.9033 30.74 48.15 26.2633 48.8766 21.6866C49.09 19.86 49.6766 17.9266 49.0566 16.13C48.36 14.3266 46.49 13.06 44.57 13.0733Z" fill="url(#paint25_radial_706_2094)"/>
<path d="M44.57 13.0733C44.1633 13.0733 43.7533 13.1233 43.3733 13.2266C44.5233 15.1133 45.9933 17.0466 46.05 19.3166C46.17 22.9033 41.8733 25.3633 38.8366 23.4466C37.7566 28.0033 34.2833 37.8933 31.4466 30.2266C30.0666 26.1466 29.63 23.3133 28.5166 19.5233C25.4033 6.20662 12.7766 4.44996 6.82996 13.2266C9.14996 13.7666 10.3833 15.99 10.4233 18.2466C10.7033 20.6433 11.1633 22.9866 11.8266 25.3066C15.6566 13.5333 17.9266 16.54 19.7266 23.88C21.46 31.2933 23.44 38.9833 28.39 41.2333C34.9066 44.7366 42.0566 41.1066 44.8 34.8866C46.9033 30.74 48.15 26.2633 48.8766 21.6866C49.09 19.86 49.6766 17.9266 49.0566 16.13C48.36 14.3266 46.49 13.06 44.57 13.0733Z" fill="url(#paint26_radial_706_2094)"/>
<path d="M44.57 13.0733C44.1633 13.0733 43.7533 13.1233 43.3733 13.2266C44.5233 15.1133 45.9933 17.0466 46.05 19.3166C46.17 22.9033 41.8733 25.3633 38.8366 23.4466C37.7566 28.0033 34.2833 37.8933 31.4466 30.2266C30.0666 26.1466 29.63 23.3133 28.5166 19.5233C25.4033 6.20662 12.7766 4.44996 6.82996 13.2266C9.14996 13.7666 10.3833 15.99 10.4233 18.2466C10.7033 20.6433 11.1633 22.9866 11.8266 25.3066C15.6566 13.5333 17.9266 16.54 19.7266 23.88C21.46 31.2933 23.44 38.9833 28.39 41.2333C34.9066 44.7366 42.0566 41.1066 44.8 34.8866C46.9033 30.74 48.15 26.2633 48.8766 21.6866C49.09 19.86 49.6766 17.9266 49.0566 16.13C48.36 14.3266 46.49 13.06 44.57 13.0733Z" fill="url(#paint27_radial_706_2094)"/>
<path d="M44.57 13.0733C44.1633 13.0733 43.7533 13.1233 43.3733 13.2266C44.5233 15.1133 45.9933 17.0466 46.05 19.3166C46.17 22.9033 41.8733 25.3633 38.8366 23.4466C37.7566 28.0033 34.2833 37.8933 31.4466 30.2266C30.0666 26.1466 29.63 23.3133 28.5166 19.5233C25.4033 6.20662 12.7766 4.44996 6.82996 13.2266C9.14996 13.7666 10.3833 15.99 10.4233 18.2466C10.7033 20.6433 11.1633 22.9866 11.8266 25.3066C15.6566 13.5333 17.9266 16.54 19.7266 23.88C21.46 31.2933 23.44 38.9833 28.39 41.2333C34.9066 44.7366 42.0566 41.1066 44.8 34.8866C46.9033 30.74 48.15 26.2633 48.8766 21.6866C49.09 19.86 49.6766 17.9266 49.0566 16.13C48.36 14.3266 46.49 13.06 44.57 13.0733Z" fill="url(#paint28_radial_706_2094)"/>
<path d="M44.57 13.0733C44.1633 13.0733 43.7533 13.1233 43.3733 13.2266C44.5233 15.1133 45.9933 17.0466 46.05 19.3166C46.17 22.9033 41.8733 25.3633 38.8366 23.4466C37.7566 28.0033 34.2833 37.8933 31.4466 30.2266C30.0666 26.1466 29.63 23.3133 28.5166 19.5233C25.4033 6.20662 12.7766 4.44996 6.82996 13.2266C9.14996 13.7666 10.3833 15.99 10.4233 18.2466C10.7033 20.6433 11.1633 22.9866 11.8266 25.3066C15.6566 13.5333 17.9266 16.54 19.7266 23.88C21.46 31.2933 23.44 38.9833 28.39 41.2333C34.9066 44.7366 42.0566 41.1066 44.8 34.8866C46.9033 30.74 48.15 26.2633 48.8766 21.6866C49.09 19.86 49.6766 17.9266 49.0566 16.13C48.36 14.3266 46.49 13.06 44.57 13.0733Z" fill="url(#paint29_radial_706_2094)"/>
<path d="M44.57 13.0733C44.1633 13.0733 43.7533 13.1233 43.3733 13.2266C44.5233 15.1133 45.9933 17.0466 46.05 19.3166C46.17 22.9033 41.8733 25.3633 38.8366 23.4466C37.7566 28.0033 34.2833 37.8933 31.4466 30.2266C30.0666 26.1466 29.63 23.3133 28.5166 19.5233C25.4033 6.20662 12.7766 4.44996 6.82996 13.2266C9.14996 13.7666 10.3833 15.99 10.4233 18.2466C10.7033 20.6433 11.1633 22.9866 11.8266 25.3066C15.6566 13.5333 17.9266 16.54 19.7266 23.88C21.46 31.2933 23.44 38.9833 28.39 41.2333C34.9066 44.7366 42.0566 41.1066 44.8 34.8866C46.9033 30.74 48.15 26.2633 48.8766 21.6866C49.09 19.86 49.6766 17.9266 49.0566 16.13C48.36 14.3266 46.49 13.06 44.57 13.0733Z" fill="url(#paint30_radial_706_2094)"/>
<path d="M44.57 13.0733C44.1633 13.0733 43.7533 13.1233 43.3733 13.2266C44.5233 15.1133 45.9933 17.0466 46.05 19.3166C46.17 22.9033 41.8733 25.3633 38.8366 23.4466C37.7566 28.0033 34.2833 37.8933 31.4466 30.2266C30.0666 26.1466 29.63 23.3133 28.5166 19.5233C25.4033 6.20662 12.7766 4.44996 6.82996 13.2266C9.14996 13.7666 10.3833 15.99 10.4233 18.2466C10.7033 20.6433 11.1633 22.9866 11.8266 25.3066C15.6566 13.5333 17.9266 16.54 19.7266 23.88C21.46 31.2933 23.44 38.9833 28.39 41.2333C34.9066 44.7366 42.0566 41.1066 44.8 34.8866C46.9033 30.74 48.15 26.2633 48.8766 21.6866C49.09 19.86 49.6766 17.9266 49.0566 16.13C48.36 14.3266 46.49 13.06 44.57 13.0733Z" fill="url(#paint31_radial_706_2094)"/>
<path d="M44.57 13.0733C44.1633 13.0733 43.7533 13.1233 43.3733 13.2266C44.5233 15.1133 45.9933 17.0466 46.05 19.3166C46.17 22.9033 41.8733 25.3633 38.8366 23.4466C37.7566 28.0033 34.2833 37.8933 31.4466 30.2266C30.0666 26.1466 29.63 23.3133 28.5166 19.5233C25.4033 6.20662 12.7766 4.44996 6.82996 13.2266C9.14996 13.7666 10.3833 15.99 10.4233 18.2466C10.7033 20.6433 11.1633 22.9866 11.8266 25.3066C15.6566 13.5333 17.9266 16.54 19.7266 23.88C21.46 31.2933 23.44 38.9833 28.39 41.2333C34.9066 44.7366 42.0566 41.1066 44.8 34.8866C46.9033 30.74 48.15 26.2633 48.8766 21.6866C49.09 19.86 49.6766 17.9266 49.0566 16.13C48.36 14.3266 46.49 13.06 44.57 13.0733Z" fill="url(#paint32_radial_706_2094)"/>
<path d="M44.57 13.0733C44.1633 13.0733 43.7533 13.1233 43.3733 13.2266C44.5233 15.1133 45.9933 17.0466 46.05 19.3166C46.17 22.9033 41.8733 25.3633 38.8366 23.4466C37.7566 28.0033 34.2833 37.8933 31.4466 30.2266C30.0666 26.1466 29.63 23.3133 28.5166 19.5233C25.4033 6.20662 12.7766 4.44996 6.82996 13.2266C9.14996 13.7666 10.3833 15.99 10.4233 18.2466C10.7033 20.6433 11.1633 22.9866 11.8266 25.3066C15.6566 13.5333 17.9266 16.54 19.7266 23.88C21.46 31.2933 23.44 38.9833 28.39 41.2333C34.9066 44.7366 42.0566 41.1066 44.8 34.8866C46.9033 30.74 48.15 26.2633 48.8766 21.6866C49.09 19.86 49.6766 17.9266 49.0566 16.13C48.36 14.3266 46.49 13.06 44.57 13.0733Z" fill="url(#paint33_radial_706_2094)"/>
<path d="M44.57 13.0733C44.1633 13.0733 43.7533 13.1233 43.3733 13.2266C44.5233 15.1133 45.87 17.0466 45.9266 19.3166C46.0466 22.9033 41.8733 25.3633 38.8366 23.4466C37.7566 28.0033 34.2833 37.8933 31.4466 30.2266C30.0666 26.1466 29.63 23.3133 28.5166 19.5233C25.4033 6.20662 12.7766 4.44996 6.82996 13.2266C9.14996 13.7666 10.3833 15.99 10.4233 18.2466C10.7033 20.6433 11.1633 22.9866 11.8266 25.3066C15.6566 13.5333 17.9266 16.54 19.7266 23.88C21.46 31.2933 23.44 38.9833 28.39 41.2333C34.9066 44.7366 42.0566 41.1066 44.8 34.8866C46.9033 30.74 48.15 26.2633 48.8766 21.6866C49.09 19.86 49.6766 17.9266 49.0566 16.13C48.36 14.3266 46.49 13.06 44.57 13.0733Z" fill="url(#paint34_linear_706_2094)"/>
</g>
<defs>
<linearGradient id="paint0_linear_706_2094" x1="2.81673" y1="31.34" x2="40.7467" y2="16.0067" gradientUnits="userSpaceOnUse">
<stop offset="0.13" stop-color="#1CBBF3"/>
<stop offset="0.34" stop-color="#1F99A5"/>
<stop offset="0.45" stop-color="#209CA6"/>
<stop offset="0.51" stop-color="#24A4AA"/>
<stop offset="0.57" stop-color="#2BB3B0"/>
<stop offset="0.6" stop-color="#30BDB4"/>
<stop offset="0.79" stop-color="#38BA90"/>
<stop offset="1" stop-color="#60F05A"/>
</linearGradient>
<radialGradient id="paint1_radial_706_2094" cx="0" cy="0" r="1" gradientUnits="userSpaceOnUse" gradientTransform="translate(27.9776 22.4178) rotate(74.32) scale(17.9487 13.642)">
<stop stop-color="#227B60"/>
<stop offset="0.14" stop-color="#227B60" stop-opacity="0.81"/>
<stop offset="0.58" stop-color="#227B60" stop-opacity="0.23"/>
<stop offset="0.78" stop-color="#227B60" stop-opacity="0"/>
</radialGradient>
<radialGradient id="paint2_radial_706_2094" cx="0" cy="0" r="1" gradientUnits="userSpaceOnUse" gradientTransform="translate(31.6267 21.3122) rotate(91.15) scale(12.1372 9.22387)">
<stop stop-color="#227B60"/>
<stop offset="0.25" stop-color="#227B60" stop-opacity="0.7"/>
<stop offset="0.71" stop-color="#227B60" stop-opacity="0.2"/>
<stop offset="0.92" stop-color="#227B60" stop-opacity="0"/>
</radialGradient>
<radialGradient id="paint3_radial_706_2094" cx="0" cy="0" r="1" gradientUnits="userSpaceOnUse" gradientTransform="translate(30.4697 21.5337) rotate(88.6) scale(11.3139 8.0332)">
<stop stop-color="#227B60"/>
<stop offset="0.07" stop-color="#227B60" stop-opacity="0.9"/>
<stop offset="0.34" stop-color="#227B60" stop-opacity="0.51"/>
<stop offset="0.59" stop-color="#227B60" stop-opacity="0.23"/>
<stop offset="0.79" stop-color="#227B60" stop-opacity="0.06"/>
<stop offset="0.92" stop-color="#227B60" stop-opacity="0"/>
</radialGradient>
<radialGradient id="paint4_radial_706_2094" cx="0" cy="0" r="1" gradientUnits="userSpaceOnUse" gradientTransform="translate(31.0909 20.9008) rotate(88.6) scale(9.1352 6.48533)">
<stop stop-color="#227B60"/>
<stop offset="0.36" stop-color="#227B60" stop-opacity="0.63"/>
<stop offset="0.92" stop-color="#227B60" stop-opacity="0"/>
</radialGradient>
<radialGradient id="paint5_radial_706_2094" cx="0" cy="0" r="1" gradientUnits="userSpaceOnUse" gradientTransform="translate(30.6946 21.4986) rotate(88.6) scale(7.28587 4.66387)">
<stop stop-color="#20735A"/>
<stop offset="0.15" stop-color="#20745A" stop-opacity="0.93"/>
<stop offset="0.38" stop-color="#21755C" stop-opacity="0.74"/>
<stop offset="0.67" stop-color="#21785D" stop-opacity="0.43"/>
<stop offset="1" stop-color="#227B60" stop-opacity="0"/>
</radialGradient>
<radialGradient id="paint6_radial_706_2094" cx="0" cy="0" r="1" gradientUnits="userSpaceOnUse" gradientTransform="translate(32.0609 22.3241) rotate(23.8) scale(11.7243 8.7932)">
<stop stop-color="#227A61"/>
<stop offset="0.36" stop-color="#227A61" stop-opacity="0.56"/>
<stop offset="0.72" stop-color="#227A61" stop-opacity="0.16"/>
<stop offset="0.9" stop-color="#227A61" stop-opacity="0"/>
</radialGradient>
<radialGradient id="paint7_radial_706_2094" cx="0" cy="0" r="1" gradientUnits="userSpaceOnUse" gradientTransform="translate(27.8621 4.60299) rotate(35.27) scale(15.6357 14.2956)">
<stop stop-color="#3CD9C3"/>
<stop offset="0.07" stop-color="#3BD7C1" stop-opacity="0.9"/>
<stop offset="0.41" stop-color="#38CEB9" stop-opacity="0.42"/>
<stop offset="0.65" stop-color="#36C8B4" stop-opacity="0.12"/>
<stop offset="0.76" stop-color="#35C6B2" stop-opacity="0"/>
</radialGradient>
<radialGradient id="paint8_radial_706_2094" cx="0" cy="0" r="1" gradientUnits="userSpaceOnUse" gradientTransform="translate(-19794.6 -12063) rotate(35.27) scale(2777.37 1948.49)">
<stop stop-color="#3CD9C3"/>
<stop offset="0.07" stop-color="#3BD7C1" stop-opacity="0.9"/>
<stop offset="0.41" stop-color="#38CEB9" stop-opacity="0.42"/>
<stop offset="0.65" stop-color="#36C8B4" stop-opacity="0.12"/>
<stop offset="0.76" stop-color="#35C6B2" stop-opacity="0"/>
</radialGradient>
<radialGradient id="paint9_radial_706_2094" cx="0" cy="0" r="1" gradientUnits="userSpaceOnUse" gradientTransform="translate(33.2574 26.3409) rotate(100.97) scale(13.7889 17.0417)">
<stop stop-color="#237F66" stop-opacity="0.8"/>
<stop offset="0.06" stop-color="#2C8C70" stop-opacity="0.65"/>
<stop offset="0.21" stop-color="#3DA785" stop-opacity="0.37"/>
<stop offset="0.35" stop-color="#4ABA93" stop-opacity="0.17"/>
<stop offset="0.47" stop-color="#51C59C" stop-opacity="0.04"/>
<stop offset="0.56" stop-color="#54C99F" stop-opacity="0"/>
</radialGradient>
<radialGradient id="paint10_radial_706_2094" cx="0" cy="0" r="1" gradientUnits="userSpaceOnUse" gradientTransform="translate(26.4982 26.5021) rotate(-50.82) scale(18.0196 19.4611)">
<stop stop-color="#167C8A"/>
<stop offset="0.04" stop-color="#167C8A" stop-opacity="0.93"/>
<stop offset="0.33" stop-color="#177F8D" stop-opacity="0.43"/>
<stop offset="0.54" stop-color="#17818F" stop-opacity="0.12"/>
<stop offset="0.65" stop-color="#178290" stop-opacity="0"/>
</radialGradient>
<radialGradient id="paint11_radial_706_2094" cx="0" cy="0" r="1" gradientUnits="userSpaceOnUse" gradientTransform="translate(25.1278 28.1016) rotate(-31.66) scale(17.8101 14.0705)">
<stop offset="0.05" stop-color="#177D87"/>
<stop offset="0.11" stop-color="#177E89" stop-opacity="0.8"/>
<stop offset="0.21" stop-color="#177F8B" stop-opacity="0.52"/>
<stop offset="0.32" stop-color="#17818D" stop-opacity="0.29"/>
<stop offset="0.42" stop-color="#17818F" stop-opacity="0.13"/>
<stop offset="0.51" stop-color="#178290" stop-opacity="0.03"/>
<stop offset="0.6" stop-color="#178290" stop-opacity="0"/>
</radialGradient>
<radialGradient id="paint12_radial_706_2094" cx="0" cy="0" r="1" gradientUnits="userSpaceOnUse" gradientTransform="translate(20.754 27.9002) rotate(-130.54) scale(10.4728 8.246)">
<stop offset="0.26" stop-color="#177F8A"/>
<stop offset="0.27" stop-color="#177F8A" stop-opacity="0.98"/>
<stop offset="0.38" stop-color="#17808C" stop-opacity="0.68"/>
<stop offset="0.5" stop-color="#17818D" stop-opacity="0.43"/>
<stop offset="0.62" stop-color="#17818F" stop-opacity="0.24"/>
<stop offset="0.74" stop-color="#17828F" stop-opacity="0.11"/>
<stop offset="0.86" stop-color="#178290" stop-opacity="0.03"/>
<stop offset="1" stop-color="#178290" stop-opacity="0"/>
</radialGradient>
<radialGradient id="paint13_radial_706_2094" cx="0" cy="0" r="1" gradientUnits="userSpaceOnUse" gradientTransform="translate(18.9329 31.577) rotate(-173.11) scale(9.82427)">
<stop stop-color="#13656E"/>
<stop offset="0.11" stop-color="#13646E" stop-opacity="0.73"/>
<stop offset="0.27" stop-color="#12646E" stop-opacity="0.41"/>
<stop offset="0.42" stop-color="#12636E" stop-opacity="0.18"/>
<stop offset="0.55" stop-color="#12636E" stop-opacity="0.05"/>
<stop offset="0.66" stop-color="#12636E" stop-opacity="0"/>
</radialGradient>
<radialGradient id="paint14_radial_706_2094" cx="0" cy="0" r="1" gradientUnits="userSpaceOnUse" gradientTransform="translate(18.8471 32.551) rotate(-119.32) scale(6.9608 5.84687)">
<stop offset="0.13" stop-color="#146A73"/>
<stop offset="0.24" stop-color="#156F79" stop-opacity="0.79"/>
<stop offset="0.45" stop-color="#167783" stop-opacity="0.45"/>
<stop offset="0.65" stop-color="#167D8A" stop-opacity="0.2"/>
<stop offset="0.82" stop-color="#17818E" stop-opacity="0.05"/>
<stop offset="0.95" stop-color="#178290" stop-opacity="0"/>
</radialGradient>
<radialGradient id="paint15_radial_706_2094" cx="0" cy="0" r="1" gradientUnits="userSpaceOnUse" gradientTransform="translate(18.1142 29.1809) rotate(-55.99) scale(6.46253 5.11987)">
<stop stop-color="#198E9C"/>
<stop offset="0.1" stop-color="#198E9C" stop-opacity="0.87"/>
<stop offset="0.41" stop-color="#198E9C" stop-opacity="0.5"/>
<stop offset="0.67" stop-color="#198E9C" stop-opacity="0.23"/>
<stop offset="0.88" stop-color="#198E9C" stop-opacity="0.06"/>
<stop offset="1" stop-color="#198E9C" stop-opacity="0"/>
</radialGradient>
<linearGradient id="paint16_linear_706_2094" x1="5.37339" y1="7.00998" x2="22.0501" y2="22.4433" gradientUnits="userSpaceOnUse">
<stop offset="0.13" stop-color="#2BF9FF"/>
<stop offset="0.27" stop-color="#29F9FF" stop-opacity="0.64"/>
<stop offset="0.4" stop-color="#27FAFF" stop-opacity="0.3"/>
<stop offset="0.49" stop-color="#26FAFF" stop-opacity="0.08"/>
<stop offset="0.54" stop-color="#26FAFF" stop-opacity="0"/>
</linearGradient>
<linearGradient id="paint17_linear_706_2094" x1="-4.10327" y1="32.2033" x2="15.3667" y2="26.68" gradientUnits="userSpaceOnUse">
<stop stop-color="#26FAFF"/>
<stop offset="0.06" stop-color="#26FAFF" stop-opacity="0.88"/>
<stop offset="0.24" stop-color="#26FAFF" stop-opacity="0.51"/>
<stop offset="0.39" stop-color="#26FAFF" stop-opacity="0.23"/>
<stop offset="0.5" stop-color="#26FAFF" stop-opacity="0.06"/>
<stop offset="0.55" stop-color="#26FAFF" stop-opacity="0"/>
</linearGradient>
<linearGradient id="paint18_linear_706_2094" x1="0.986727" y1="31.55" x2="22.9867" y2="23.71" gradientUnits="userSpaceOnUse">
<stop stop-color="#21DEFF"/>
<stop offset="0.04" stop-color="#21DEFF" stop-opacity="0.88"/>
<stop offset="0.17" stop-color="#21DEFF" stop-opacity="0.51"/>
<stop offset="0.27" stop-color="#21DEFF" stop-opacity="0.23"/>
<stop offset="0.34" stop-color="#21DEFF" stop-opacity="0.06"/>
<stop offset="0.38" stop-color="#21DEFF" stop-opacity="0"/>
</linearGradient>
<linearGradient id="paint19_linear_706_2094" x1="21.9634" y1="20.1733" x2="34.2401" y2="40.1967" gradientUnits="userSpaceOnUse">
<stop offset="0.62" stop-color="#21DEFF" stop-opacity="0"/>
<stop offset="0.66" stop-color="#21DEFF" stop-opacity="0.06"/>
<stop offset="0.73" stop-color="#21DEFF" stop-opacity="0.23"/>
<stop offset="0.83" stop-color="#21DEFF" stop-opacity="0.51"/>
<stop offset="0.96" stop-color="#21DEFF" stop-opacity="0.88"/>
<stop offset="1" stop-color="#21DEFF"/>
</linearGradient>
<linearGradient id="paint20_linear_706_2094" x1="35.63" y1="27.6601" x2="33.7033" y2="18.2534" gradientUnits="userSpaceOnUse">
<stop stop-color="#44B044"/>
<stop offset="0.11" stop-color="#44B044" stop-opacity="0.8"/>
<stop offset="0.27" stop-color="#44B044" stop-opacity="0.52"/>
<stop offset="0.43" stop-color="#44B044" stop-opacity="0.29"/>
<stop offset="0.58" stop-color="#44B044" stop-opacity="0.13"/>
<stop offset="0.7" stop-color="#44B044" stop-opacity="0.03"/>
<stop offset="0.8" stop-color="#44B044" stop-opacity="0"/>
</linearGradient>
<linearGradient id="paint21_linear_706_2094" x1="8.67996" y1="17.92" x2="49.3" y2="31.37" gradientUnits="userSpaceOnUse">
<stop stop-color="#3066FB"/>
<stop offset="0.38" stop-color="#2F64F7"/>
<stop offset="0.74" stop-color="#2857D9"/>
<stop offset="1" stop-color="#3C7EFF"/>
</linearGradient>
<radialGradient id="paint22_radial_706_2094" cx="0" cy="0" r="1" gradientUnits="userSpaceOnUse" gradientTransform="translate(37.35 23.9173) rotate(98.69) scale(21.5992 14.2551)">
<stop stop-color="#1A3D9C"/>
<stop offset="0.4" stop-color="#1A3D9C" stop-opacity="0.42"/>
<stop offset="0.7" stop-color="#1A3D9C" stop-opacity="0"/>
</radialGradient>
<radialGradient id="paint23_radial_706_2094" cx="0" cy="0" r="1" gradientUnits="userSpaceOnUse" gradientTransform="translate(-125.428 -19010.5) rotate(98.69) scale(2657.64 1432.48)">
<stop stop-color="#1A3D9C"/>
<stop offset="0.4" stop-color="#1A3D9C" stop-opacity="0.42"/>
<stop offset="0.7" stop-color="#1A3D9C" stop-opacity="0"/>
</radialGradient>
<radialGradient id="paint24_radial_706_2094" cx="0" cy="0" r="1" gradientUnits="userSpaceOnUse" gradientTransform="translate(1019.63 -19167.1) rotate(98.62) scale(3165.12 1307.12)">
<stop stop-color="#1A3D9C"/>
<stop offset="0.4" stop-color="#1A3D9C" stop-opacity="0.42"/>
<stop offset="0.7" stop-color="#1A3D9C" stop-opacity="0"/>
</radialGradient>
<radialGradient id="paint25_radial_706_2094" cx="0" cy="0" r="1" gradientUnits="userSpaceOnUse" gradientTransform="translate(35.0231 24.2323) rotate(83.09) scale(18.8784 13.1733)">
<stop stop-color="#1A3D9C"/>
<stop offset="0.16" stop-color="#1A3D9C" stop-opacity="0.69"/>
<stop offset="0.33" stop-color="#1A3D9C" stop-opacity="0.4"/>
<stop offset="0.49" stop-color="#1A3D9C" stop-opacity="0.18"/>
<stop offset="0.61" stop-color="#1A3D9C" stop-opacity="0.05"/>
<stop offset="0.7" stop-color="#1A3D9C" stop-opacity="0"/>
</radialGradient>
<radialGradient id="paint26_radial_706_2094" cx="0" cy="0" r="1" gradientUnits="userSpaceOnUse" gradientTransform="translate(38.0633 26.1525) rotate(74.64) scale(18.1437 12.3373)">
<stop stop-color="#18388F"/>
<stop offset="0.37" stop-color="#193B96" stop-opacity="0.45"/>
<stop offset="0.7" stop-color="#1A3D9C" stop-opacity="0"/>
</radialGradient>
<radialGradient id="paint27_radial_706_2094" cx="0" cy="0" r="1" gradientUnits="userSpaceOnUse" gradientTransform="translate(36.6185 30.8381) rotate(74.64) scale(8.436 8.01293)">
<stop stop-color="#18388F"/>
<stop offset="0.09" stop-color="#183992" stop-opacity="0.78"/>
<stop offset="0.22" stop-color="#193B96" stop-opacity="0.5"/>
<stop offset="0.35" stop-color="#193C98" stop-opacity="0.28"/>
<stop offset="0.47" stop-color="#1A3C9A" stop-opacity="0.13"/>
<stop offset="0.59" stop-color="#1A3D9C" stop-opacity="0.03"/>
<stop offset="0.7" stop-color="#1A3D9C" stop-opacity="0"/>
</radialGradient>
<radialGradient id="paint28_radial_706_2094" cx="0" cy="0" r="1" gradientUnits="userSpaceOnUse" gradientTransform="translate(36.7676 32.3066) rotate(74.64) scale(8.436 8.01293)">
<stop stop-color="#1A3D9C" stop-opacity="0.78"/>
<stop offset="0.24" stop-color="#1A3D9C" stop-opacity="0.45"/>
<stop offset="0.44" stop-color="#1A3D9C" stop-opacity="0.2"/>
<stop offset="0.6" stop-color="#1A3D9C" stop-opacity="0.05"/>
<stop offset="0.7" stop-color="#1A3D9C" stop-opacity="0"/>
</radialGradient>
<radialGradient id="paint29_radial_706_2094" cx="0" cy="0" r="1" gradientUnits="userSpaceOnUse" gradientTransform="translate(14.9789 27.1114) rotate(67.03) scale(20.1324 13.3608)">
<stop stop-color="#1A3D9C"/>
<stop offset="0.4" stop-color="#1A3D9C" stop-opacity="0.56"/>
<stop offset="0.48" stop-color="#1A3D9C" stop-opacity="0.43"/>
<stop offset="0.69" stop-color="#1A3D9C" stop-opacity="0.12"/>
<stop offset="0.79" stop-color="#1A3D9C" stop-opacity="0"/>
</radialGradient>
<radialGradient id="paint30_radial_706_2094" cx="0" cy="0" r="1" gradientUnits="userSpaceOnUse" gradientTransform="translate(12.4407 22.1615) rotate(76.1) scale(14.934 9.85973)">
<stop stop-color="#1A3D9C"/>
<stop offset="0.06" stop-color="#1A3D9C" stop-opacity="0.88"/>
<stop offset="0.21" stop-color="#1A3D9C" stop-opacity="0.61"/>
<stop offset="0.36" stop-color="#1A3D9C" stop-opacity="0.39"/>
<stop offset="0.51" stop-color="#1A3D9C" stop-opacity="0.22"/>
<stop offset="0.67" stop-color="#1A3D9C" stop-opacity="0.1"/>
<stop offset="0.83" stop-color="#1A3D9C" stop-opacity="0.02"/>
<stop offset="1" stop-color="#1A3D9C" stop-opacity="0"/>
</radialGradient>
<radialGradient id="paint31_radial_706_2094" cx="0" cy="0" r="1" gradientUnits="userSpaceOnUse" gradientTransform="translate(12.4407 22.1615) rotate(76.1) scale(14.934 9.85973)">
<stop stop-color="#1B3E9E"/>
<stop offset="0.06" stop-color="#1B3E9E" stop-opacity="0.87"/>
<stop offset="0.21" stop-color="#1B3E9D" stop-opacity="0.61"/>
<stop offset="0.36" stop-color="#1A3D9D" stop-opacity="0.39"/>
<stop offset="0.52" stop-color="#1A3D9C" stop-opacity="0.22"/>
<stop offset="0.67" stop-color="#1A3D9C" stop-opacity="0.1"/>
<stop offset="0.83" stop-color="#1A3D9C" stop-opacity="0.02"/>
<stop offset="1" stop-color="#1A3D9C" stop-opacity="0"/>
</radialGradient>
<radialGradient id="paint32_radial_706_2094" cx="0" cy="0" r="1" gradientUnits="userSpaceOnUse" gradientTransform="translate(13.7228 20.4845) rotate(76.1) scale(11.4253 7.54173)">
<stop stop-color="#183991"/>
<stop offset="0.03" stop-color="#183992" stop-opacity="0.95"/>
<stop offset="0.18" stop-color="#193A95" stop-opacity="0.66"/>
<stop offset="0.34" stop-color="#193B97" stop-opacity="0.42"/>
<stop offset="0.5" stop-color="#1A3C99" stop-opacity="0.24"/>
<stop offset="0.66" stop-color="#1A3D9B" stop-opacity="0.1"/>
<stop offset="0.82" stop-color="#1A3D9C" stop-opacity="0.03"/>
<stop offset="1" stop-color="#1A3D9C" stop-opacity="0"/>
</radialGradient>
<radialGradient id="paint33_radial_706_2094" cx="0" cy="0" r="1" gradientUnits="userSpaceOnUse" gradientTransform="translate(17.2783 23.8165) rotate(87.14) scale(9.02627 7.94707)">
<stop offset="0.04" stop-color="#2453D6" stop-opacity="0.6"/>
<stop offset="0.2" stop-color="#2453D6" stop-opacity="0.49"/>
<stop offset="0.52" stop-color="#2453D6" stop-opacity="0.2"/>
<stop offset="0.73" stop-color="#2453D6" stop-opacity="0"/>
</radialGradient>
<linearGradient id="paint34_linear_706_2094" x1="35.0866" y1="1.31329" x2="24.82" y2="26.6866" gradientUnits="userSpaceOnUse">
<stop stop-color="#3774FF"/>
<stop offset="0.05" stop-color="#3774FF" stop-opacity="0.91"/>
<stop offset="0.16" stop-color="#3774FF" stop-opacity="0.66"/>
<stop offset="0.32" stop-color="#3774FF" stop-opacity="0.28"/>
<stop offset="0.43" stop-color="#3774FF" stop-opacity="0"/>
</linearGradient>
<clipPath id="clip0_706_2094">
<rect width="50" height="50" fill="white"/>
</clipPath>
</defs>
</svg>
